<svg width="50" height="50" viewBox="0 0 50 50" fill="none" xmlns="http://www.w3.org/2000/svg">
<path opacity="0.33" fill-rule="evenodd" clip-rule="evenodd" d="M25 50C38.8071 50 50 38.8071 50 25C50 11.1929 38.8071 0 25 0C11.1929 0 0 11.1929 0 25C0 38.8071 11.1929 50 25 50Z" fill="#5F5858" fill-opacity="0.5"/>
<path fill-rule="evenodd" clip-rule="evenodd" d="M25.0075 21.314C22.8015 21.314 21.0125 23.107 21.0125 25.319C21.0125 27.53 22.8015 29.324 25.0075 29.324C27.2145 29.324 29.0025 27.53 29.0025 25.319C29.0025 23.107 27.2145 21.314 25.0075 21.314ZM31.3485 21.663C30.9805 21.663 30.6805 21.361 30.6805 20.989C30.6805 20.617 30.9805 20.315 31.3485 20.315C31.7165 20.315 32.0155 20.617 32.0155 20.989C32.0155 21.361 31.7165 21.663 31.3485 21.663ZM25.0025 30.303C22.2635 30.303 20.0445 28.078 20.0445 25.334C20.0445 22.59 22.2635 20.366 25.0025 20.366C27.7405 20.366 29.9605 22.59 29.9605 25.334C29.9605 28.078 27.7405 30.303 25.0025 30.303ZM35.9995 21.439C35.9995 21.345 35.9995 21.252 35.9985 21.159C35.9985 21.08 35.9975 21.001 35.9955 20.922C35.9905 20.751 35.9805 20.501 35.9505 20.331C35.9195 20.159 35.8695 20.075 35.7915 19.918C35.7135 19.765 35.6125 19.624 35.4915 19.502C35.3715 19.379 35.2315 19.278 35.0795 19.199C34.9245 19.12 34.7665 19.069 34.5955 19.038C34.4275 19.007 34.2565 18.997 34.0865 18.993C34.0085 18.991 33.9305 18.99 33.8525 18.99C33.7605 18.989 33.6675 18.989 33.5755 18.989H32.8295H31.3465C31.2005 18.982 31.0545 18.983 30.9115 18.957C30.7165 18.921 30.5355 18.849 30.3585 18.757C30.1855 18.668 30.0275 18.555 29.8895 18.415C29.7525 18.275 29.5795 17.629 29.4405 17.304C29.3965 17.202 29.3805 17.143 29.3405 17.064C29.2525 16.889 29.1365 16.726 29.0005 16.586C28.8615 16.446 28.7025 16.328 28.5305 16.238C28.3535 16.146 28.1725 16.089 27.9775 16.054C27.7865 16.018 27.5905 16.008 27.3965 16.002C27.3075 15.999 22.6285 15.999 22.5395 16.002C22.3465 16.008 22.1505 16.018 21.9595 16.054C21.7655 16.089 21.5845 16.146 21.4075 16.238C21.2345 16.328 21.0755 16.445 20.9375 16.585C20.7995 16.725 20.6845 16.888 20.5965 17.064C20.5575 17.143 20.5245 17.222 20.4975 17.303C20.3585 17.649 20.1895 18.264 20.0515 18.404C19.9145 18.544 19.7555 18.658 19.5815 18.747C19.4055 18.84 19.2245 18.911 19.0305 18.946C18.8385 18.981 18.6435 18.979 18.4495 18.983C18.3605 18.987 18.4595 18.987 18.3695 18.988C18.2645 18.989 18.1595 18.989 18.0535 18.989H17.1705H16.4245C16.3325 18.989 16.2405 18.989 16.1475 18.99C16.0695 18.99 15.9915 18.991 15.9135 18.993C15.7435 18.997 15.5725 19.007 15.4045 19.038C15.2335 19.069 15.0755 19.12 14.9205 19.199C14.7685 19.278 14.6285 19.379 14.5085 19.502C14.3875 19.624 14.2865 19.765 14.2095 19.918C14.1305 20.075 14.0795 20.235 14.0495 20.408C14.0195 20.577 14.0085 20.751 14.0045 20.922C14.0025 21.001 14.0025 21.08 14.0015 21.159C14.0005 21.252 14.0005 21.345 14.0005 21.439V21.933V29.462V30.217C14.0005 30.311 14.0005 30.404 14.0015 30.497C14.0025 30.577 14.0025 30.655 14.0045 30.734C14.0085 30.906 14.0195 31.078 14.0495 31.248C14.0795 31.421 14.1305 31.581 14.2095 31.738C14.2865 31.892 14.3875 32.032 14.5085 32.154C14.6285 32.276 14.7685 32.378 14.9205 32.457C15.0755 32.536 15.2335 32.587 15.4045 32.618C15.5725 32.649 15.7435 32.659 15.9135 32.663C15.9915 32.665 16.0695 32.666 16.1475 32.667C16.2405 32.667 16.3325 32.667 16.4245 32.667H33.5755C33.6675 32.667 33.7605 32.667 33.8525 32.667C33.9305 32.666 34.0085 32.665 34.0865 32.663C34.2565 32.659 34.4275 32.649 34.5955 32.618C34.7665 32.587 34.9245 32.536 35.0795 32.457C35.2315 32.378 35.3715 32.276 35.4915 32.154C35.6125 32.032 35.7135 31.892 35.7915 31.738C35.8695 31.581 35.9195 31.421 35.9505 31.248C35.9805 31.078 35.9905 30.906 35.9955 30.734C35.9975 30.655 35.9985 30.577 35.9985 30.497C35.9995 30.404 35.9995 30.311 35.9995 30.217V29.462V22.194V21.439ZM16.1315 18.32H18.2015C18.2725 18.32 18.3305 18.262 18.3305 18.191V17.753C18.3305 17.739 18.3305 17.724 18.3295 17.71C18.3285 17.678 18.3255 17.646 18.3205 17.615C18.3155 17.583 18.3065 17.553 18.2915 17.524C18.2775 17.496 18.2595 17.47 18.2375 17.448C18.2145 17.425 18.1895 17.406 18.1625 17.392C18.1335 17.377 18.1045 17.367 18.0735 17.362C18.0425 17.356 18.0115 17.354 17.9805 17.353C17.9665 17.353 17.9515 17.352 17.9375 17.352H16.3995C16.3865 17.352 16.3715 17.353 16.3575 17.353C16.3265 17.354 16.2955 17.356 16.2645 17.362C16.2335 17.367 16.2045 17.377 16.1765 17.392C16.1485 17.406 16.1235 17.425 16.1005 17.448C16.0785 17.47 16.0615 17.496 16.0465 17.524C16.0315 17.553 16.0235 17.583 16.0175 17.615C16.0115 17.646 16.0095 17.678 16.0095 17.71C16.0085 17.724 16.0055 17.739 16.0055 17.753C16.0055 17.77 16.0035 17.788 16.0035 17.805V18.191C16.0035 18.262 16.0615 18.32 16.1315 18.32Z" fill="white"/>
</svg>
