<svg width="26" height="26" viewBox="0 0 26 26" fill="none" xmlns="http://www.w3.org/2000/svg">
<g filter="url(#filter0_b_10833_6645)">
<path fill-rule="evenodd" clip-rule="evenodd" d="M13 26C20.1797 26 26 20.1797 26 13C26 5.8203 20.1797 0 13 0C5.8203 0 0 5.8203 0 13C0 20.1797 5.8203 26 13 26Z" fill="#252525" fill-opacity="0.78"/>
</g>
<path fill-rule="evenodd" clip-rule="evenodd" d="M17.8755 8.34218C17.466 7.9327 16.802 7.93275 16.3925 8.3423L12.9337 11.8011L9.54109 8.40849C9.13161 7.99901 8.46765 7.99906 8.0581 8.40861C7.64855 8.81816 7.6485 9.48212 8.05798 9.8916L11.4506 13.2842L7.99172 16.7431C7.58217 17.1526 7.58212 17.8166 7.9916 18.2261C8.40108 18.6355 9.06504 18.6355 9.47459 18.2259L12.9334 14.7671L16.3261 18.1597C16.7356 18.5692 17.3996 18.5692 17.8091 18.1596C18.2187 17.7501 18.2187 17.0861 17.8092 16.6766L14.4166 13.284L17.8754 9.82517C18.2849 9.41562 18.285 8.75166 17.8755 8.34218Z" fill="#8E8E93"/>
<defs>
<filter id="filter0_b_10833_6645" x="-54.3656" y="-54.3656" width="134.731" height="134.731" filterUnits="userSpaceOnUse" color-interpolation-filters="sRGB">
<feFlood flood-opacity="0" result="BackgroundImageFix"/>
<feGaussianBlur in="BackgroundImageFix" stdDeviation="27.1828"/>
<feComposite in2="SourceAlpha" operator="in" result="effect1_backgroundBlur_10833_6645"/>
<feBlend mode="normal" in="SourceGraphic" in2="effect1_backgroundBlur_10833_6645" result="shape"/>
</filter>
</defs>
</svg>
