<svg width="50" height="50" viewBox="0 0 50 50" fill="none" xmlns="http://www.w3.org/2000/svg">
<path opacity="0.33" fill-rule="evenodd" clip-rule="evenodd" d="M25 50C38.8071 50 50 38.8071 50 25C50 11.1929 38.8071 0 25 0C11.1929 0 0 11.1929 0 25C0 38.8071 11.1929 50 25 50Z" fill="#5F5858" fill-opacity="0.5"/>
<path fill-rule="evenodd" clip-rule="evenodd" d="M25.9985 27.3335C25.9985 27.8855 25.5515 28.3325 24.9995 28.3325C24.4475 28.3325 24.0005 27.8855 24.0005 27.3335C24.0005 26.7815 24.4475 26.3345 24.9995 26.3345C25.5515 26.3345 25.9985 26.7815 25.9985 27.3335ZM23.3295 24.6885V27.3125C23.3295 28.2345 24.0775 28.9815 24.9995 28.9815C25.9215 28.9815 26.6695 28.2345 26.6695 27.3125V24.6885C26.6695 23.7655 25.9215 23.0185 24.9995 23.0185C24.0775 23.0185 23.3295 23.7655 23.3295 24.6885ZM25.2505 15.6665H30.0005C30.0005 16.9345 29.9995 17.9285 28.7495 19.6675C27.7605 21.0435 27.6665 21.6365 27.6665 23.1665V34.9165V36.9175V37.1665C27.6665 37.9955 26.9955 38.6665 26.1665 38.6665H23.8335C23.0045 38.6665 22.3335 37.9955 22.3335 37.1665V36.9175V34.9165V23.1665C22.3335 21.6365 22.2395 21.0435 21.2495 19.6675C20.0005 17.9285 19.9995 16.9345 19.9995 15.6665H24.7505H25.2505ZM19.9995 13.5005C19.9995 13.2245 20.2235 13.0005 20.4995 13.0005H29.5005C29.7765 13.0005 30.0005 13.2245 30.0005 13.5005V14.6665H19.9995V13.5005Z" fill="white"/>
</svg>
