<svg width="10" height="26" viewBox="0 0 10 26" fill="none" xmlns="http://www.w3.org/2000/svg">
<path fill-rule="evenodd" clip-rule="evenodd" d="M5.99851 14.3335C5.99851 14.8855 5.55151 15.3325 4.99951 15.3325C4.44751 15.3325 4.00051 14.8855 4.00051 14.3335C4.00051 13.7815 4.44751 13.3345 4.99951 13.3345C5.55151 13.3345 5.99851 13.7815 5.99851 14.3335ZM3.32951 11.6885V14.3125C3.32951 15.2345 4.07751 15.9815 4.99951 15.9815C5.92151 15.9815 6.66951 15.2345 6.66951 14.3125V11.6885C6.66951 10.7655 5.92151 10.0185 4.99951 10.0185C4.07751 10.0185 3.32951 10.7655 3.32951 11.6885ZM5.25051 2.66649H10.0005C10.0005 3.93449 9.99951 4.92849 8.74951 6.66749C7.76051 8.04349 7.66651 8.63649 7.66651 10.1665V21.9165V23.9175V24.1665C7.66651 24.9955 6.99551 25.6665 6.16651 25.6665H3.83351C3.00451 25.6665 2.33351 24.9955 2.33351 24.1665V23.9175V21.9165V10.1665C2.33351 8.63649 2.23951 8.04349 1.24951 6.66749C0.000511765 4.92849 -0.000488281 3.93449 -0.000488281 2.66649H4.75051H5.25051ZM-0.000488281 0.500488C-0.000488281 0.224488 0.223512 0.000488281 0.499512 0.000488281H9.50051C9.77651 0.000488281 10.0005 0.224488 10.0005 0.500488V1.66649H-0.000488281V0.500488Z" fill="white"/>
</svg>
