<svg width="23" height="34" viewBox="0 0 23 34" fill="none" xmlns="http://www.w3.org/2000/svg">
<path fill-rule="evenodd" clip-rule="evenodd" d="M17.18 13.6677H5.82004C5.70436 13.6677 5.59368 13.6677 5.48534 13.6677V11.397C5.48534 10.033 5.49467 9.026 5.6997 8.01233C5.89738 7.03633 6.26142 6.192 6.81248 5.45867C7.92027 3.98467 9.66446 3.13567 11.5 3.13567C13.3359 3.13567 15.0797 3.98467 16.1875 5.45867C16.7389 6.192 17.1029 7.03633 17.3003 8.01233C17.5057 9.026 17.5147 10.033 17.5147 11.397V13.6677C17.4066 13.6677 17.296 13.6677 17.18 13.6677ZM22.9999 19.5157C22.9999 18.744 23.0013 18.141 22.9923 17.748C22.9826 17.317 22.9586 16.951 22.8963 16.5983C22.7689 15.8817 22.4755 15.243 21.9538 14.7187C21.5798 14.3427 21.1457 14.0863 20.6677 13.9233V11.397C20.6677 9.867 20.654 8.56333 20.343 7.16933C20.0419 5.821 19.4919 4.58767 18.6518 3.49767C16.9583 1.30067 14.313 0 11.5 0C8.68702 0 6.04173 1.30067 4.34821 3.49767C3.50812 4.58767 2.95806 5.821 2.65736 7.16933C2.34599 8.56333 2.33233 9.867 2.33233 11.397V13.9233C1.85427 14.0863 1.42023 14.3427 1.04618 14.7187C0.524461 15.243 0.231095 15.8817 0.103748 16.5983C0.0410742 16.951 0.0174049 17.317 0.00773718 17.748C-0.00126381 18.141 6.96674e-05 18.744 6.96674e-05 19.5157V27.484C6.96674e-05 28.2557 -0.00126381 28.8587 0.00773718 29.2517C0.0174049 29.6827 0.0410742 30.049 0.103748 30.4013C0.231095 31.118 0.524461 31.757 1.04618 32.281C1.56758 32.8053 2.20364 33.0997 2.91672 33.228C3.26776 33.2907 3.63214 33.3147 4.06052 33.3243C4.45223 33.3333 5.05229 33.3323 5.82004 33.3323H17.18C17.9477 33.3323 18.5481 33.3333 18.9391 33.3243C19.3679 33.3147 19.7322 33.2907 20.0833 33.228C20.7964 33.0997 21.4324 32.8053 21.9538 32.281C22.4755 31.757 22.7689 31.118 22.8963 30.4013C22.9586 30.049 22.9826 29.6827 22.9923 29.2517C23.0013 28.8587 22.9999 28.2557 22.9999 27.484V19.5157Z" fill="white"/>
</svg>
